<svg width="40" height="40" viewBox="0 0 40 40" fill="none" xmlns="http://www.w3.org/2000/svg">
<path d="M20 4.75195C16.8355 4.75195 13.7421 5.69034 11.1109 7.44843C8.47973 9.20654 6.42894 11.7053 5.21793 14.6289C4.00694 17.5525 3.69008 20.7698 4.30744 23.8734C4.9248 26.9771 6.44865 29.828 8.6863 32.0656C10.9239 34.3032 13.7749 35.8272 16.8786 36.4445C19.9822 37.0619 23.1994 36.745 26.123 35.5339C29.0466 34.323 31.5454 32.2722 33.3035 29.641C35.0616 27.0098 36 23.9165 36 20.752" stroke="#435EBE" stroke-width="2" stroke-linecap="round" stroke-linejoin="round"/>
<path d="M21.1205 27.3759V29.136C21.1205 29.4204 21.0074 29.6932 20.8064 29.8941C20.6053 30.0952 20.3327 30.2079 20.0483 30.2079C19.764 30.2079 19.4914 30.0952 19.2904 29.8941C19.0893 29.6932 18.9763 29.4204 18.9763 29.136V27.3282C18.2664 27.2116 17.5867 26.9549 16.977 26.5732C16.3671 26.1912 15.8393 25.6917 15.4244 25.1039C15.2733 24.9121 15.189 24.6762 15.1844 24.4321C15.1842 24.2935 15.2122 24.156 15.2667 24.0285C15.3211 23.9012 15.4009 23.786 15.5011 23.6903C15.6013 23.5946 15.7199 23.52 15.8498 23.4716C15.9796 23.4229 16.118 23.4013 16.2564 23.4079C16.3938 23.4071 16.5297 23.4369 16.6542 23.4949C16.7787 23.553 16.8887 23.6384 16.9763 23.7442C17.4882 24.4129 18.1829 24.9184 18.9763 25.2V21.1361C16.8483 20.304 15.7764 19.0559 15.7764 17.4399C15.8085 16.5748 16.1485 15.7495 16.7352 15.1129C17.3219 14.4764 18.1167 14.0704 18.9763 13.968V12.2079C18.9763 11.9236 19.0893 11.6511 19.2904 11.4501C19.4914 11.249 19.764 11.136 20.0483 11.136C20.3327 11.136 20.6053 11.249 20.8064 11.4501C21.0074 11.6511 21.1205 11.9236 21.1205 12.2079V13.952C21.7159 14.0453 22.2863 14.2577 22.7976 14.5766C23.309 14.8955 23.7507 15.3142 24.0963 15.8079C24.2488 15.9878 24.3387 16.2127 24.3523 16.448C24.3567 16.5852 24.3335 16.7217 24.2839 16.8497C24.2343 16.9777 24.1595 17.0944 24.064 17.193C23.9685 17.2916 23.8541 17.3696 23.7279 17.4231C23.6015 17.4765 23.4656 17.5041 23.3283 17.5039C23.185 17.5031 23.0435 17.4714 22.9138 17.4106C22.784 17.3498 22.6688 17.2615 22.5763 17.1521C22.1949 16.6754 21.692 16.3108 21.1205 16.0962V19.6962L21.5205 19.8559C23.5525 20.6559 24.8165 21.8081 24.8165 23.6321C24.7927 24.6093 24.397 25.5407 23.7103 26.2364C23.0235 26.932 22.0973 27.3394 21.1205 27.3759ZM18.9763 18.768V16.1599C18.7181 16.2535 18.4959 16.426 18.3408 16.6529C18.1859 16.8796 18.1059 17.1493 18.1125 17.4239C18.1098 17.7077 18.1901 17.9863 18.3435 18.225C18.4971 18.4639 18.717 18.6527 18.9763 18.768ZM22.4803 23.68C22.4803 22.9121 21.9525 22.448 21.1205 22.0801V25.2801C21.5019 25.2223 21.8498 25.0284 22.0997 24.7344C22.3496 24.4404 22.4848 24.066 22.4803 23.68Z" fill="#435EBE"/>
<path d="M26.9437 13.7279L35.9997 4.67188" stroke="#435EBE" stroke-width="2" stroke-linecap="round" stroke-linejoin="round"/>
<path d="M28.7531 4.67188H36.0011V11.9199" stroke="#435EBE" stroke-width="2" stroke-linecap="round" stroke-linejoin="round"/>
</svg>
