<svg width="38" height="38" viewBox="0 0 38 38" fill="none" xmlns="http://www.w3.org/2000/svg">
<g clip-path="url(#clip0_269_225)">
<path d="M10.3044 36.4236C10.5143 36.4236 10.6844 36.2536 10.6844 36.0436V18.5367C10.6844 18.327 10.5141 18.1567 10.3044 18.1567H7.26438C7.05464 18.1567 6.88438 18.327 6.88438 18.5367V36.0436C6.88438 36.2536 7.05445 36.4236 7.26438 36.4236H10.3044ZM10.3044 37.9436H7.26438C6.215 37.9436 5.36438 37.093 5.36438 36.0436V18.5367C5.36438 17.4875 6.21508 16.6367 7.26438 16.6367H10.3044C11.3537 16.6367 12.2044 17.4875 12.2044 18.5367V36.0436C12.2044 37.093 11.3538 37.9436 10.3044 37.9436ZM20.5264 36.4236C20.7363 36.4236 20.9064 36.2536 20.9064 36.0436V15.1695C20.9064 14.9595 20.7363 14.7895 20.5264 14.7895H17.4864C17.4365 14.7895 17.3871 14.7993 17.3409 14.8184C17.2948 14.8375 17.2529 14.8655 17.2177 14.9007C17.1824 14.936 17.1544 14.9779 17.1353 15.024C17.1162 15.0701 17.1064 15.1196 17.1064 15.1695V36.0436C17.1064 36.2536 17.2765 36.4236 17.4864 36.4236H20.5264ZM20.5264 37.9436H17.4864C16.437 37.9436 15.5864 37.093 15.5864 36.0436V15.1695C15.5864 14.1201 16.437 13.2695 17.4864 13.2695H20.5264C21.5758 13.2695 22.4264 14.1201 22.4264 15.1695V36.0436C22.4264 37.093 21.5758 37.9436 20.5264 37.9436ZM30.7484 36.4587C30.9583 36.4587 31.1284 36.2886 31.1284 36.0787V11.8369C31.1284 11.6272 30.9581 11.4569 30.7484 11.4569H27.7084C27.4986 11.4569 27.3284 11.6272 27.3284 11.8369V36.0787C27.3284 36.2886 27.4985 36.4587 27.7084 36.4587H30.7484ZM30.7484 37.9787H27.7084C26.659 37.9787 25.8084 37.128 25.8084 36.0787V11.8369C25.8084 10.7878 26.6591 9.93693 27.7084 9.93693H30.7484C31.7977 9.93693 32.6484 10.7878 32.6484 11.8369V36.0787C32.6484 37.128 31.7978 37.9787 30.7484 37.9787ZM25.8596 1.52L29.6593 1.52572C30.079 1.52635 30.4198 1.18661 30.4204 0.766866C30.421 0.347122 30.0813 0.00634658 29.6616 0.00571572L25.8619 8.77165e-07C25.4422 -0.000629982 25.1014 0.339106 25.1008 0.758851C25.1001 1.17859 25.4399 1.51937 25.8596 1.52Z" fill="#435EBE"/>
<path d="M28.9003 0.763318L28.8889 4.54205C28.8877 4.9618 29.2269 5.30309 29.6466 5.30436C30.0664 5.30562 30.4077 4.9664 30.4089 4.54666L30.4203 0.76792C30.4216 0.348175 30.0824 0.00688046 29.6626 0.00561874C29.2429 0.00435702 28.9016 0.343574 28.9003 0.763318Z" fill="#435EBE"/>
<path d="M6.07998 11.7889H11.8017C12.0512 11.7889 12.2983 11.7398 12.5289 11.6443C12.7595 11.5488 12.969 11.4088 13.1454 11.2323L16.9667 7.41106C17.0379 7.33986 17.1345 7.29979 17.2352 7.29962H23.1636C23.6673 7.29962 24.1504 7.09975 24.5069 6.74388L29.7441 1.50663C30.0409 1.20983 30.0409 0.72863 29.7441 0.431829C29.4473 0.135028 28.9662 0.135028 28.6694 0.431829L23.4326 5.66859C23.3612 5.73974 23.2644 5.77966 23.1636 5.77962H17.2352C16.7314 5.77979 16.2482 5.97999 15.8919 6.33623L12.0706 10.1575C12.0353 10.1928 11.9933 10.2209 11.9472 10.24C11.901 10.2591 11.8516 10.2689 11.8016 10.2689H6.07995C5.6602 10.2689 5.31995 10.6092 5.31995 11.0289C5.31995 11.4487 5.66024 11.7889 6.07998 11.7889Z" fill="#435EBE"/>
</g>
<defs>
<clipPath id="clip0_269_225">
<rect width="38" height="38" fill="white"/>
</clipPath>
</defs>
</svg>
