<svg width="220" height="58" viewBox="0 0 220 58" fill="none" xmlns="http://www.w3.org/2000/svg">
<path opacity="0.969" fill-rule="evenodd" clip-rule="evenodd" d="M33.4107 2.52646C43.5298 1.89369 51.7067 5.48207 57.9415 13.2916C59.0761 15.0721 60.1122 16.9029 61.0494 18.784C61.2144 19.2104 61.1773 19.6132 60.9384 19.9924C59.6315 20.3891 58.2996 20.6454 56.9425 20.7613C53.6702 12.8769 47.7502 8.29986 39.1826 7.03025C26.4755 6.4876 18.2985 12.2363 14.6519 24.2765C14.3411 27.0728 14.2301 29.8557 14.3189 32.625C10.1845 33.7951 6.04056 34.747 1.88698 35.481C4.40408 32.9901 6.99405 30.5734 9.65691 28.231C11.2531 13.9101 19.171 5.3419 33.4107 2.52646Z" fill="#41BADC"/>
<path opacity="0.433" fill-rule="evenodd" clip-rule="evenodd" d="M43.6226 13.072C43.3094 12.7628 42.9395 12.5431 42.5126 12.4129C42.0105 12.6253 41.4925 12.7718 40.9586 12.8523C41.58 12.2725 42.3199 12.0895 43.1786 12.3031C43.4723 12.4823 43.6202 12.7386 43.6226 13.072Z" fill="#6C7AB3"/>
<path fill-rule="evenodd" clip-rule="evenodd" d="M43.6226 13.0719C43.7099 13.7339 43.5618 14.3198 43.1786 14.8295C41.7207 15.7336 40.1668 16.466 38.5167 17.0265C38.0993 16.967 37.8034 17.1134 37.6287 17.4659C36.7538 18.0452 35.7918 18.3748 34.7427 18.4545C33.6791 17.8242 33.4571 16.9821 34.0767 15.928C36.3415 14.8157 38.6354 13.7905 40.9586 12.8522C41.4925 12.7717 42.0105 12.6253 42.5126 12.4128C42.9395 12.543 43.3094 12.7627 43.6226 13.0719Z" fill="#4B61BB"/>
<path opacity="0.051" fill-rule="evenodd" clip-rule="evenodd" d="M43.6226 13.072C43.8732 13.5396 43.9103 14.0522 43.7336 14.6099C43.5846 14.7752 43.3997 14.8484 43.1786 14.8296C43.5618 14.3199 43.7098 13.734 43.6226 13.072Z" fill="#848BAD"/>
<path opacity="0.934" fill-rule="evenodd" clip-rule="evenodd" d="M81.8063 15.9281C82.9937 15.6999 83.9927 15.9928 84.8032 16.8069C86.9668 20.8698 89.1868 24.8977 91.4632 28.8902C93.7273 24.5176 96.1325 20.2335 98.6781 16.0379C99.0482 16.0013 99.418 15.9647 99.7881 15.9281C100.372 15.8887 100.89 16.0351 101.342 16.3675C101.599 22.876 101.636 29.3935 101.453 35.9205C101.385 36.098 101.274 36.2446 101.12 36.3599C100.393 36.5983 99.6536 36.635 98.9001 36.4698C98.641 36.3599 98.4561 36.1769 98.3451 35.9205C98.0605 31.8308 97.9127 27.7298 97.9011 23.6175C96.1163 26.894 94.3034 30.1528 92.4622 33.394C91.3213 33.9446 90.3963 33.6882 89.6872 32.6251C88.1157 29.5875 86.4878 26.5851 84.8032 23.6175C84.7293 27.572 84.6552 31.5266 84.5812 35.4811C84.5206 35.8829 84.3355 36.2125 84.0262 36.4698C83.2863 36.6163 82.5462 36.6163 81.8063 36.4698C81.6213 36.2867 81.4362 36.1035 81.2513 35.9205C81.1032 29.4761 81.1032 23.0315 81.2513 16.5872C81.4833 16.3953 81.6682 16.1756 81.8063 15.9281Z" fill="#435EBE"/>
<path opacity="0.902" fill-rule="evenodd" clip-rule="evenodd" d="M106.892 15.928C109.932 15.3999 110.894 16.535 109.778 19.3333C108.509 20.007 107.288 19.8971 106.115 19.0037C105.547 17.7426 105.806 16.7173 106.892 15.928Z" fill="#435EBE"/>
<path opacity="0.902" fill-rule="evenodd" clip-rule="evenodd" d="M197.023 15.928C200.063 15.3999 201.025 16.535 199.909 19.3333C198.64 20.007 197.419 19.8971 196.246 19.0037C195.679 17.7426 195.937 16.7173 197.023 15.928Z" fill="#435EBE"/>
<path opacity="0.921" fill-rule="evenodd" clip-rule="evenodd" d="M214.783 15.9281C215.527 15.8918 216.267 15.9284 217.003 16.0379C217.507 16.3801 217.765 16.8562 217.78 17.466C217.992 23.6265 217.919 29.778 217.558 35.9205C217.373 36.1035 217.188 36.2867 217.003 36.4697C215.131 37.1148 214.132 36.4922 214.006 34.6023C212.303 36.4816 210.194 37.104 207.679 36.4697C205.96 35.8669 204.739 34.7317 204.016 33.0644C202.882 30.0342 203.104 27.1049 204.682 24.2766C206.406 22.2362 208.589 21.5406 211.231 22.1894C212.292 22.4384 213.142 22.9876 213.784 23.8372C213.858 21.6402 213.932 19.4432 214.006 17.2463C214.1 16.6914 214.359 16.252 214.783 15.9281ZM209.677 24.9357C212.684 24.8355 214.164 26.3002 214.117 29.3296C214.057 32.7938 212.355 34.1486 209.011 33.394C208.091 32.7782 207.536 31.9361 207.346 30.8675C206.637 28.2381 207.414 26.2609 209.677 24.9357Z" fill="#435EBE"/>
<path fill-rule="evenodd" clip-rule="evenodd" d="M36.9627 21.2008C36.73 20.3738 36.4341 19.5682 36.0747 18.7841C38.464 17.5417 40.906 16.4798 43.4006 15.5985C44.8114 18.6475 46.2544 21.6867 47.7296 24.7159C47.8958 24.9653 47.859 25.185 47.6186 25.375C45.2505 26.4735 42.8827 27.572 40.5146 28.6705C39.2139 26.2424 38.03 23.7526 36.9627 21.2008Z" fill="#465FBD"/>
<path opacity="0.93" fill-rule="evenodd" clip-rule="evenodd" d="M177.265 16.1478C180.744 16.1112 184.222 16.1478 187.699 16.2576C191.222 17.0383 192.665 19.1986 192.028 22.7387C191.626 24.1586 190.775 25.2204 189.475 25.9243C191.599 26.7954 192.709 28.3699 192.805 30.6478C192.745 33.7336 191.191 35.601 188.143 36.25C184.514 36.6681 180.887 36.6681 177.265 36.25C177.08 36.067 176.895 35.8838 176.71 35.7008C176.348 29.7066 176.274 23.7014 176.488 17.6856C176.518 17.0476 176.777 16.5349 177.265 16.1478ZM180.151 19.0038C182.389 18.9108 184.609 19.0206 186.811 19.3334C188.474 20.4272 188.807 21.8553 187.81 23.6175C186.869 24.3264 185.796 24.656 184.591 24.6061C183.113 24.7159 181.633 24.7524 180.151 24.7159C180.151 22.8118 180.151 20.9079 180.151 19.0038ZM180.151 27.572C182.537 27.4777 184.905 27.5876 187.255 27.9015C188.897 29.0018 189.305 30.4298 188.476 32.1856C188.134 32.5982 187.727 32.9278 187.255 33.1743C184.905 33.4882 182.537 33.5981 180.151 33.5038C180.151 31.5265 180.151 29.5493 180.151 27.572Z" fill="#435EBE"/>
<path opacity="0.071" fill-rule="evenodd" clip-rule="evenodd" d="M38.5167 17.0266C38.2915 17.2844 37.9956 17.4309 37.6287 17.466C37.8034 17.1135 38.0993 16.9671 38.5167 17.0266Z" fill="#999CB1"/>
<path opacity="0.937" fill-rule="evenodd" clip-rule="evenodd" d="M129.98 17.9053C130.959 17.8001 131.884 17.9465 132.755 18.3447C133.057 19.6424 133.168 20.9606 133.088 22.2993C134.422 22.2628 135.754 22.2995 137.084 22.4091C137.504 23.05 137.615 23.7457 137.417 24.4962C137.216 24.7601 136.957 24.9433 136.64 25.0455C135.458 25.1551 134.274 25.1918 133.088 25.1553C132.992 27.6621 133.103 30.1521 133.421 32.625C133.69 32.9653 134.023 33.2215 134.42 33.394C135.633 33.3748 136.78 33.5578 137.861 33.9432C138.094 36.1762 137.058 37.055 134.753 36.5796C132.373 36.758 130.671 35.806 129.647 33.7235C129.331 30.8808 129.22 28.0248 129.314 25.1553C128.484 25.2122 127.67 25.1391 126.872 24.9356C126.287 24.0861 126.287 23.2437 126.872 22.4091C127.683 22.2995 128.496 22.263 129.314 22.2993C129.277 21.1253 129.314 19.9535 129.425 18.7841C129.572 18.4581 129.757 18.1652 129.98 17.9053Z" fill="#435EBE"/>
<path opacity="0.157" fill-rule="evenodd" clip-rule="evenodd" d="M69.1524 20.1023C69.0784 19.9558 69.0043 19.8093 68.9304 19.6629C69.1271 19.3826 69.3491 19.3826 69.5964 19.6629C69.5176 19.8875 69.3695 20.0339 69.1524 20.1023Z" fill="#CABB79"/>
<path opacity="0.361" fill-rule="evenodd" clip-rule="evenodd" d="M36.0747 18.7841C36.4341 19.5682 36.73 20.3737 36.9627 21.2007C36.5795 20.6642 36.2465 20.0783 35.9637 19.4431C35.7994 19.1687 35.8365 18.949 36.0747 18.7841Z" fill="#7881B7"/>
<path opacity="0.998" fill-rule="evenodd" clip-rule="evenodd" d="M68.9304 19.6628C69.0043 19.8093 69.0784 19.9558 69.1524 20.1022C67.1624 22.1817 65.1273 24.2321 63.0474 26.2538C63.443 38.8439 57.9302 47.8148 46.5086 53.1666C34.8457 57.1528 24.7448 54.7728 16.2059 46.0265C15.1659 44.6978 14.2409 43.3064 13.4309 41.8522C13.4786 41.4834 13.3306 41.2637 12.9869 41.1931C11.8732 39.2034 11.1332 37.0795 10.7669 34.8219C12.1109 34.5348 13.4429 34.2786 14.7629 34.053C18.4475 45.3259 26.2914 50.8917 38.2947 50.75C47.3713 49.6115 53.6982 44.888 57.2755 36.5795C59.0124 31.8468 59.1234 27.0866 57.6085 22.2992C61.3276 21.2095 65.1016 20.3307 68.9304 19.6628Z" fill="#4760BC"/>
<path opacity="0.999" fill-rule="evenodd" clip-rule="evenodd" d="M36.0747 21.6401C36.2967 21.6401 36.5187 21.6401 36.7407 21.6401C37.4027 23.2365 38.0687 24.8475 38.7386 26.4735C37.5252 26.3667 36.3784 26.5864 35.2977 27.1326C35.0879 27.0436 34.9398 26.897 34.8537 26.6932C30.0139 29.4359 25.0929 32.0358 20.0908 34.4924C19.2662 34.7971 18.4152 34.9801 17.5378 35.0417C15.966 34.8688 15.374 33.99 15.7619 32.4053C17.188 30.997 18.853 29.9352 20.7568 29.2197C25.0665 27.5783 29.3583 25.8941 33.6327 24.1667C33.3368 23.947 33.3368 23.7273 33.6327 23.5076C34.7125 23.1965 35.5263 22.5741 36.0747 21.6401Z" fill="#4860BC"/>
<path opacity="0.937" fill-rule="evenodd" clip-rule="evenodd" d="M106.892 22.0795C107.871 21.9743 108.796 22.1208 109.667 22.5189C109.741 22.7386 109.815 22.9583 109.889 23.178C110.037 27.2791 110.037 31.3799 109.889 35.481C109.762 35.9187 109.503 36.2482 109.112 36.4697C108.446 36.6162 107.78 36.6162 107.114 36.4697C106.707 36.3598 106.448 36.1034 106.337 35.7007C106.189 31.4533 106.189 27.2057 106.337 22.9583C106.484 22.6323 106.669 22.3394 106.892 22.0795Z" fill="#435EBE"/>
<path opacity="0.914" fill-rule="evenodd" clip-rule="evenodd" d="M117.548 22.0796C119.03 22.0431 120.51 22.0796 121.988 22.1894C122.981 22.4432 123.906 22.8459 124.763 23.3978C125.133 25.0081 124.504 25.7039 122.876 25.4849C121.4 24.775 119.846 24.5554 118.214 24.8258C116.937 25.5247 116.789 26.4034 117.77 27.4622C119.637 27.8313 121.487 28.2706 123.32 28.7803C125.249 30.0401 125.804 31.761 124.985 33.9432C124.331 35.0296 123.406 35.7986 122.21 36.25C119.751 36.734 117.309 36.6607 114.884 36.0303C113.542 35.6575 113.061 34.8152 113.441 33.5038C113.741 33.1721 114.111 32.9524 114.551 32.8447C116.47 33.8505 118.505 34.1801 120.656 33.8334C121.818 33.3171 122.04 32.5481 121.322 31.5266C119.582 30.934 117.806 30.4579 115.994 30.0985C113.428 28.6685 112.873 26.6546 114.329 24.0569C115.229 23.0827 116.302 22.4236 117.548 22.0796Z" fill="#435EBE"/>
<path opacity="0.919" fill-rule="evenodd" clip-rule="evenodd" d="M144.188 22.0795C149.907 21.4067 152.682 23.8966 152.513 29.5492C152.182 29.8796 151.775 30.0626 151.292 30.0985C148.403 30.1351 145.517 30.245 142.634 30.428C143.44 33.1729 145.29 34.2349 148.184 33.6136C149.019 33.3831 149.834 33.0903 150.626 32.7348C152.195 32.5709 152.75 33.2667 152.291 34.8219C151.308 35.6926 150.161 36.2418 148.85 36.4697C145.351 37.2625 142.428 36.3471 140.081 33.7235C138.093 29.6946 138.722 26.1428 141.968 23.0681C142.704 22.6661 143.444 22.3366 144.188 22.0795ZM144.854 24.7159C147.537 24.1879 149.091 25.25 149.516 27.9015C147.223 28.0113 144.929 28.0478 142.634 28.0113C142.845 26.5587 143.585 25.4602 144.854 24.7159Z" fill="#435EBE"/>
<path opacity="0.935" fill-rule="evenodd" clip-rule="evenodd" d="M156.62 22.0796C158.48 21.5542 159.553 22.2132 159.839 24.0569C161.096 22.4449 162.761 21.8225 164.833 22.1894C165.695 23.1493 165.695 24.1012 164.833 25.0455C163.792 25.245 162.756 25.4647 161.726 25.7046C160.675 26.2327 160.046 27.0748 159.839 28.2311C159.765 30.7209 159.69 33.211 159.617 35.7008C159.513 36.0152 159.328 36.2714 159.062 36.4697C158.247 36.6163 157.434 36.6163 156.62 36.4697C156.353 36.2714 156.168 36.0152 156.065 35.7008C155.917 31.4534 155.917 27.2058 156.065 22.9584C156.212 22.6323 156.397 22.3395 156.62 22.0796Z" fill="#435EBE"/>
<path opacity="0.937" fill-rule="evenodd" clip-rule="evenodd" d="M197.023 22.0795C198.002 21.9743 198.928 22.1208 199.798 22.5189C199.872 22.7386 199.946 22.9583 200.02 23.178C200.168 27.2791 200.168 31.3799 200.02 35.481C199.893 35.9187 199.634 36.2482 199.243 36.4697C198.577 36.6162 197.911 36.6162 197.245 36.4697C196.838 36.3598 196.579 36.1034 196.468 35.7007C196.32 31.4533 196.32 27.2057 196.468 22.9583C196.615 22.6323 196.8 22.3394 197.023 22.0795Z" fill="#435EBE"/>
<path fill-rule="evenodd" clip-rule="evenodd" d="M48.5066 25.375C50.3927 25.8111 50.7627 26.7997 49.6166 28.3409C46.9619 29.6358 44.2608 30.8441 41.5136 31.9659C40.0804 31.4369 39.7474 30.5214 40.5146 29.2197C43.233 27.9841 45.897 26.7026 48.5066 25.375Z" fill="#4A62BB"/>
<path opacity="0.848" fill-rule="evenodd" clip-rule="evenodd" d="M43.1786 33.7235C46.2875 33.6868 49.3954 33.7235 52.5025 33.8333C53.0395 34.1648 53.2615 34.6407 53.1685 35.2614C49.6898 35.298 46.2118 35.2614 42.7346 35.1515C42.6332 35.0606 42.559 34.9507 42.5126 34.822C42.6813 34.4133 42.9033 34.0471 43.1786 33.7235Z" fill="#41BADC"/>
<path opacity="0.997" fill-rule="evenodd" clip-rule="evenodd" d="M41.6246 35.7008C45.7693 35.6641 49.9131 35.7008 54.0565 35.8106C54.7116 36.2685 54.8595 36.8544 54.5005 37.5682C50.1345 37.7147 45.7687 37.7147 41.4026 37.5682C41.1633 37.4201 41.0152 37.2004 40.9586 36.9091C41.0392 36.4275 41.2612 36.0246 41.6246 35.7008Z" fill="#43B8DB"/>
<path opacity="0.89" fill-rule="evenodd" clip-rule="evenodd" d="M12.9869 41.1932C13.3306 41.2638 13.4786 41.4835 13.4309 41.8523C13.2308 41.6788 13.0828 41.4591 12.9869 41.1932Z" fill="#9E9EB6"/>
</svg>
